Coordinates
datacolumns 24
datarows 33
range 0 0.32
inDegrees=yes
Units are S.I. units (second, meters, Newtons, ...)
If the header above contains a line with 'inDegrees', this indicates whether rotational values are in degrees (yes) or radians (no).
endheader
time	pelvis_tilt	pelvis_list	pelvis_rotation	pelvis_tx	pelvis_ty	pelvis_tz	hip_flexion_r	hip_adduction_r	hip_rotation_r	knee_angle_r	ankle_angle_r	subtalar_angle_r	mtp_angle_r	hip_flexion_l	hip_adduction_l	hip_rotation_l	knee_angle_l	ankle_angle_l	subtalar_angle_l	mtp_angle_l	lumbar_extension	lumbar_bending	lumbar_rotation
0	43.42576027	3.26813708	-1.43696603	0.05028483	0.54743397	-0.02734581	48.83767648	-4.83598923	5.84354847	-112.1151265	21.10914223	0	0	48.39742332	-2.1158317	-5.0009596	-112.0019783	18.57743354	0	0	-53.18264053	-3.46722283	-3.20969278
0.01	43.43644553	3.27087707	-1.44320716	0.05012253	0.54732708	-0.02725511	48.84734984	-4.83847202	5.84180412	-112.1135633	21.10791165	0	0	48.40433078	-2.12147214	-4.99498843	-111.9968443	18.57708584	0	0	-53.18041377	-3.46644315	-3.21057961
0.02	43.4422095	3.26893742	-1.46212348	0.04999107	0.54722817	-0.0271602	48.86869986	-4.84391075	5.83048883	-112.1151376	21.10382237	0	0	48.41158659	-2.12682387	-4.98837287	-111.9938135	18.57524799	0	0	-53.18476793	-3.46680048	-3.21094717
0.03	43.4167255	3.25082452	-1.49158347	0.04987991	0.54706351	-0.02706366	48.94287293	-4.84530501	5.78941313	-112.1326454	21.07187307	0	0	48.45613952	-2.16238205	-4.98948907	-111.9974194	18.56937557	0	0	-53.23654186	-3.47761827	-3.20708563
0.04	43.33015559	3.19672136	-1.53862261	0.04974641	0.54677353	-0.02690504	49.09390094	-4.76842993	5.75905598	-112.1325107	20.95772965	0	0	48.59810229	-2.25271636	-4.96324642	-112.0333901	18.54506527	0	0	-53.32222601	-3.49251789	-3.19984392
0.05	43.33751929	3.20037424	-1.54435945	0.04961181	0.54670597	-0.0268068	49.102199	-4.77231391	5.75611027	-112.130616	20.95713645	0	0	48.6031578	-2.26070734	-4.95875011	-112.0296188	18.54539253	0	0	-53.32296437	-3.49140904	-3.19956534
0.06	43.32356252	3.19111786	-1.58016339	0.0495112	0.5466353	-0.02671966	49.1524735	-4.78405204	5.72407235	-112.133151	20.94685221	0	0	48.62069763	-2.29016751	-4.96495921	-112.0216643	18.54505368	0	0	-53.36437898	-3.48955626	-3.19298812
0.07	43.24568876	3.15158237	-1.63312393	0.04941178	0.54639217	-0.02653904	49.28536428	-4.71421904	5.70397559	-112.1344273	20.86835307	0	0	48.73728557	-2.38574026	-4.96807012	-112.0503434	18.54052584	0	0	-53.52943392	-3.49088892	-3.16148082
0.08	43.2104611	3.12245873	-1.67308831	0.04929921	0.54626955	-0.02641867	49.35643024	-4.6792548	5.68096646	-112.1280122	20.82590684	0	0	48.79269014	-2.45338403	-4.96451368	-112.0585912	18.53455132	0	0	-53.58939446	-3.48502959	-3.13933884
0.09	43.15908261	3.08687402	-1.70350309	0.04921071	0.54611845	-0.02636828	49.44392376	-4.64644716	5.65605752	-112.128923	20.78847317	0	0	48.86579245	-2.51704825	-4.97103845	-112.0644744	18.53382903	0	0	-53.69922699	-3.47420657	-3.10683619
0.1	43.11443866	3.07222291	-1.73113194	0.04912999	0.54601416	-0.02626413	49.52246268	-4.64083367	5.62446981	-112.1261291	20.76595895	0	0	48.92513458	-2.57211577	-4.97843828	-112.0629525	18.53637826	0	0	-53.80672103	-3.46205968	-3.07989848
0.11	43.07814275	3.05648585	-1.76105016	0.04909486	0.54591212	-0.02622279	49.58809873	-4.63390721	5.6038958	-112.1265739	20.75016012	0	0	48.97329353	-2.59516074	-4.97795464	-112.0706933	18.53795936	0	0	-53.90007218	-3.4511727	-3.05919735
0.12	42.98419949	3.02144081	-1.79399688	0.04904224	0.54566226	-0.02618478	49.73569625	-4.6076552	5.56895748	-112.1288897	20.7047583	0	0	49.10532513	-2.65688494	-4.97321248	-112.0964778	18.54067166	0	0	-54.1235779	-3.42257806	-3.0086231
0.13	42.90427075	2.98584077	-1.81787435	0.04901492	0.54546332	-0.02613714	49.85614377	-4.58686166	5.52558487	-112.1325029	20.66091589	0	0	49.2216493	-2.70748331	-4.95508545	-112.1173531	18.53662306	0	0	-54.27936857	-3.38990765	-2.96373225
0.14	42.81139935	2.94774243	-1.83053991	0.04902562	0.54523707	-0.02613143	49.99009047	-4.5762711	5.47656532	-112.1382469	20.62304456	0	0	49.3501827	-2.74671066	-4.92509648	-112.1450256	18.53309523	0	0	-54.4412253	-3.34683503	-2.9138387
0.15	42.72146958	2.92019245	-1.83344415	0.04904842	0.54501971	-0.02614851	50.12023382	-4.58995831	5.42519977	-112.1469558	20.60014619	0	0	49.47472864	-2.77388331	-4.90297364	-112.1685917	18.53512932	0	0	-54.611252	-3.30699306	-2.86899545
0.16	42.62146293	2.89450339	-1.83227257	0.04909715	0.54475799	-0.02619803	50.26265632	-4.60829316	5.37291929	-112.1624853	20.57756836	0	0	49.61927522	-2.78213947	-4.87244086	-112.1982135	18.53692636	0	0	-54.80785623	-3.26180075	-2.8226559
0.17	42.50019502	2.86384409	-1.81496177	0.04916984	0.54448043	-0.0262771	50.42597972	-4.6270689	5.31037166	-112.1791322	20.54727982	0	0	49.78899316	-2.77784053	-4.83166963	-112.2374011	18.53199754	0	0	-55.01700613	-3.20169503	-2.77278829
0.18	42.3951213	2.84500085	-1.80330046	0.04925075	0.54418403	-0.02631608	50.57419153	-4.66329448	5.25415115	-112.1980998	20.53265657	0	0	49.94101178	-2.78340791	-4.8005672	-112.2674655	18.53467287	0	0	-55.21599289	-3.15422822	-2.73218186
0.19	42.13781207	2.73579614	-1.7348651	0.04951372	0.54371623	-0.02642301	50.87069473	-4.64686401	5.0971815	-112.2089777	20.46584265	0	0	50.2993254	-2.80948936	-4.64446546	-112.3456696	18.4857476	0	0	-55.24460762	-2.96767215	-2.65134946
0.2	42.03118547	2.7298916	-1.74099517	0.0496749	0.54346459	-0.02650237	51.01608125	-4.68073779	5.07235753	-112.2358818	20.47698739	0	0	50.43794279	-2.8040212	-4.63825131	-112.3760664	18.51065311	0	0	-55.51711122	-2.95567177	-2.60540315
0.21	41.90722619	2.72368072	-1.73731982	0.04989247	0.54322558	-0.02653472	51.17314231	-4.70409438	5.03871124	-112.2619877	20.47444172	0	0	50.59234499	-2.7935961	-4.62067147	-112.4118347	18.52426435	0	0	-55.7854268	-2.930601	-2.56599074
0.22	41.76473989	2.70690149	-1.73175438	0.05015968	0.54299179	-0.02661648	51.35078745	-4.73004355	4.99808915	-112.2893382	20.47390276	0	0	50.76249182	-2.78968278	-4.59858715	-112.4512323	18.53829794	0	0	-56.06940911	-2.89988913	-2.52998315
0.23	41.61555011	2.68998495	-1.72310773	0.05048221	0.54276555	-0.02663565	51.52349478	-4.74669426	4.95859207	-112.3168026	20.47304351	0	0	50.93983085	-2.79140138	-4.56826311	-112.489169	18.55158907	0	0	-56.34061152	-2.8663199	-2.50009103
0.24	41.45104233	2.66664828	-1.71356849	0.05085165	0.54254274	-0.02667719	51.71153449	-4.75698679	4.91597111	-112.3452441	20.47507586	0	0	51.13222159	-2.79493987	-4.53496914	-112.5312332	18.56677736	0	0	-56.62732804	-2.830792	-2.47186032
0.25	41.27350362	2.640571	-1.70535946	0.05126655	0.54231894	-0.02670557	51.91074914	-4.76053932	4.87207355	-112.3750353	20.47837442	0	0	51.33682334	-2.80315677	-4.49693772	-112.5759792	18.5825662	0	0	-56.92008916	-2.79448423	-2.44597522
0.26	40.97042576	2.53959087	-1.67636619	0.05179753	0.54193071	-0.02670364	52.24043281	-4.70050133	4.75621992	-112.3980325	20.42249624	0	0	51.71044566	-2.86806355	-4.38032525	-112.655939	18.54937027	0	0	-57.07032171	-2.68193271	-2.47105472
0.27	40.80838511	2.53839146	-1.68440249	0.05224749	0.54173441	-0.02670725	52.42159093	-4.71120478	4.74250374	-112.4352999	20.46798706	0	0	51.88313306	-2.86427305	-4.37152068	-112.6958078	18.59915394	0	0	-57.42765255	-2.68419382	-2.42439664
0.28	40.62352658	2.52891973	-1.69381046	0.05270034	0.54151607	-0.02668742	52.63053224	-4.6987126	4.72897841	-112.4738972	20.48713544	0	0	52.08514672	-2.86987296	-4.35572398	-112.7407058	18.63070643	0	0	-57.79004573	-2.6855795	-2.38149338
0.29	40.42705194	2.51955897	-1.70661599	0.05320075	0.54125675	-0.02666151	52.85373113	-4.68585242	4.71986774	-112.5160517	20.50716106	0	0	52.30252002	-2.87897346	-4.33775795	-112.7897193	18.66419596	0	0	-58.16980888	-2.6925925	-2.33665083
0.3	40.21532979	2.51378818	-1.71720738	0.05372302	0.54097708	-0.02661775	53.09500035	-4.66651209	4.71302955	-112.5626961	20.52784961	0	0	52.53639164	-2.88300391	-4.32073815	-112.8426975	18.69854089	0	0	-58.56404126	-2.70551934	-2.28983582
0.31	40.03380599	2.51660122	-1.72426606	0.05429615	0.54078171	-0.02655866	53.2886569	-4.65584876	4.71181777	-112.6101938	20.55036187	0	0	52.72307255	-2.87860001	-4.3037329	-112.8879198	18.72964665	0	0	-58.89232546	-2.71964218	-2.24962604
0.32	39.53820799	2.49565602	-1.73340264	0.0550732	0.54005308	-0.02645787	53.88013277	-4.58710862	4.70666726	-112.6811364	20.48519274	0	0	53.31705744	-2.92119463	-4.2666823	-112.9803669	18.69739914	0	0	-59.10418046	-2.74953373	-2.24827039
